<?xml version="1.0" encoding="utf-8"?>
<!-- Generator: Adobe Illustrator 24.0.1, SVG Export Plug-In . SVG Version: 6.00 Build 0)  -->
<svg version="1.1" id="Layer_1" xmlns="http://www.w3.org/2000/svg" xmlns:xlink="http://www.w3.org/1999/xlink" x="0px" y="0px"
	 viewBox="0 0 260 96" style="enable-background:new 0 0 260 96;" xml:space="preserve">
<style type="text/css">
	.st0{fill-rule:evenodd;clip-rule:evenodd;fill:#3F4727;}
	.st1{fill-rule:evenodd;clip-rule:evenodd;fill:#CCC4A7;}
	.st2{filter:url(#Adobe_OpacityMaskFilter);}
	.st3{fill-rule:evenodd;clip-rule:evenodd;fill:#FFFFFF;}
	.st4{mask:url(#mask-2_1_);fill-rule:evenodd;clip-rule:evenodd;fill:#CCC4A7;}
	.st5{filter:url(#Adobe_OpacityMaskFilter_1_);}
	.st6{mask:url(#mask-2_2_);fill-rule:evenodd;clip-rule:evenodd;fill:#CCC4A7;}
	.st7{filter:url(#Adobe_OpacityMaskFilter_2_);}
	.st8{mask:url(#mask-2_3_);fill-rule:evenodd;clip-rule:evenodd;fill:#CCC4A7;}
	.st9{filter:url(#Adobe_OpacityMaskFilter_3_);}
	.st10{mask:url(#mask-2_4_);fill-rule:evenodd;clip-rule:evenodd;fill:#CCC4A7;}
	.st11{filter:url(#Adobe_OpacityMaskFilter_4_);}
	.st12{mask:url(#mask-2_5_);fill-rule:evenodd;clip-rule:evenodd;fill:#CCC4A7;}
	.st13{filter:url(#Adobe_OpacityMaskFilter_5_);}
	.st14{mask:url(#mask-2_6_);fill-rule:evenodd;clip-rule:evenodd;fill:#CCC4A7;}
	.st15{filter:url(#Adobe_OpacityMaskFilter_6_);}
	.st16{mask:url(#mask-2_7_);fill-rule:evenodd;clip-rule:evenodd;fill:#CCC4A7;}
	.st17{filter:url(#Adobe_OpacityMaskFilter_7_);}
	.st18{mask:url(#mask-2_8_);fill-rule:evenodd;clip-rule:evenodd;fill:#CCC4A7;}
</style>
<polygon id="Fill-1" class="st0" points="-0.2,95.9 260,95.9 260,0 -0.2,0 "/>
<path id="Fill-2" class="st1" d="M7,88.7h98.6V7.2H7V88.7z M5.3,90.3h101.9V5.5H5.3V90.3z"/>
<path id="Fill-3" class="st1" d="M113.4,88.7h139.4V7.2H113.4V88.7z M111.8,90.3h142.7V5.5H111.8V90.3z"/>
<g id="Group-15" transform="translate(0.000000, 0.344731)">
	<path id="Fill-4" class="st1" d="M232.5,56.7h2.6V40.8h-2.6v6h-8.2v-6h-2.6v15.9h2.6v-7.5h8.2V56.7z M206.6,57.1c4.4,0,7-2.4,7-5.2
		c0-2.5-2-4.4-5.3-4.8c-1.4-0.2-2.6-0.2-3.7-0.3c-1-0.1-1.9-0.3-2.4-0.7c-0.4-0.3-0.6-0.6-0.6-1.1c0-1,1.2-2,3.6-2
		c2.1,0,4.1,0.8,6.2,2.4l1.5-2.1c-2.5-1.9-5.1-2.8-7.7-2.8c-3.7,0-6.2,2-6.2,4.5c0,1.5,0.9,2.7,2.4,3.4c0.8,0.4,1.8,0.6,2.8,0.7
		c1,0.1,2.2,0.2,3.5,0.3c2.3,0.2,3.3,1.3,3.3,2.4c0,1.5-1.6,2.9-4.4,2.9c-2.1,0-4.4-0.9-6.8-2.7l-1.5,2.2
		C200.9,56.2,203.6,57.1,206.6,57.1L206.6,57.1z M186.9,43.2c1.7,0,2.5,0.8,2.5,2.2c0,1.4-0.8,2.2-2.6,2.2h-6.4v-4.4H186.9z
		 M189.6,56.7h2.8l-3.8-6.8c2.1-0.6,3.5-2.4,3.5-4.5c0-2.9-2-4.6-5.1-4.6h-9v15.9h2.6V50h5.3L189.6,56.7z M162.7,44.5l2.8,5.6h-5.6
		L162.7,44.5z M168.7,56.7h2.8l-7.8-15.9h-2L154,56.7h2.8l2-4.1h8L168.7,56.7z M145.1,56.7h2.5V40.8h-2.2l-6,9l-5.9-9h-2.3v15.9h2.6
		V45.6l5.6,8.5l5.7-8.5V56.7z"/>
	<g id="Clip-7">
	</g>
	<defs>
		<filter id="Adobe_OpacityMaskFilter" filterUnits="userSpaceOnUse" x="20" y="72.3" width="72.7" height="0.4">
			<feColorMatrix  type="matrix" values="1 0 0 0 0  0 1 0 0 0  0 0 1 0 0  0 0 0 1 0"/>
		</filter>
	</defs>
	<mask maskUnits="userSpaceOnUse" x="20" y="72.3" width="72.7" height="0.4" id="mask-2_1_">
		<g class="st2">
			<polygon id="path-1_1_" class="st3" points="-0.2,95.5 260,95.5 260,-0.3 -0.2,-0.3 			"/>
		</g>
	</mask>
	<polygon id="Fill-6" class="st4" points="20,72.7 92.6,72.7 92.6,72.3 20,72.3 	"/>
	<defs>
		<filter id="Adobe_OpacityMaskFilter_1_" filterUnits="userSpaceOnUse" x="23.5" y="24.5" width="64.9" height="3.1">
			<feColorMatrix  type="matrix" values="1 0 0 0 0  0 1 0 0 0  0 0 1 0 0  0 0 0 1 0"/>
		</filter>
	</defs>
	<mask maskUnits="userSpaceOnUse" x="23.5" y="24.5" width="64.9" height="3.1" id="mask-2_2_">
		<g class="st5">
			<polygon id="path-1_2_" class="st3" points="-0.2,95.5 260,95.5 260,-0.3 -0.2,-0.3 			"/>
		</g>
	</mask>
	<path id="Fill-8" class="st6" d="M24.5,25.1h63.4v-0.6H24.5V25.1z M23.5,27.6h64.9v-0.6H23.5V27.6z"/>
	<defs>
		<filter id="Adobe_OpacityMaskFilter_2_" filterUnits="userSpaceOnUse" x="71.7" y="22.9" width="0.4" height="39.9">
			<feColorMatrix  type="matrix" values="1 0 0 0 0  0 1 0 0 0  0 0 1 0 0  0 0 0 1 0"/>
		</filter>
	</defs>
	<mask maskUnits="userSpaceOnUse" x="71.7" y="22.9" width="0.4" height="39.9" id="mask-2_3_">
		<g class="st7">
			<polygon id="path-1_3_" class="st3" points="-0.2,95.5 260,95.5 260,-0.3 -0.2,-0.3 			"/>
		</g>
	</mask>
	<polygon id="Fill-9" class="st8" points="71.7,62.8 72.1,62.8 72.1,22.9 71.7,22.9 	"/>
	<defs>
		<filter id="Adobe_OpacityMaskFilter_3_" filterUnits="userSpaceOnUse" x="28" y="14.4" width="31.4" height="56.2">
			<feColorMatrix  type="matrix" values="1 0 0 0 0  0 1 0 0 0  0 0 1 0 0  0 0 0 1 0"/>
		</filter>
	</defs>
	<mask maskUnits="userSpaceOnUse" x="28" y="14.4" width="31.4" height="56.2" id="mask-2_4_">
		<g class="st9">
			<polygon id="path-1_4_" class="st3" points="-0.2,95.5 260,95.5 260,-0.3 -0.2,-0.3 			"/>
		</g>
	</mask>
	<path id="Fill-10" class="st10" d="M42.8,52.2L28,18.2l0.3-0.1l14.8,34L42.8,52.2z M59,70.6L34.7,14.5l0.3-0.1l24.4,56.1L59,70.6z"
		/>
	<defs>
		<filter id="Adobe_OpacityMaskFilter_4_" filterUnits="userSpaceOnUse" x="54.9" y="16.1" width="26.8" height="60.9">
			<feColorMatrix  type="matrix" values="1 0 0 0 0  0 1 0 0 0  0 0 1 0 0  0 0 0 1 0"/>
		</filter>
	</defs>
	<mask maskUnits="userSpaceOnUse" x="54.9" y="16.1" width="26.8" height="60.9" id="mask-2_5_">
		<g class="st11">
			<polygon id="path-1_5_" class="st3" points="-0.2,95.5 260,95.5 260,-0.3 -0.2,-0.3 			"/>
		</g>
	</mask>
	<path id="Fill-11" class="st12" d="M56.9,63.7l-0.3-0.1l18.8-43.3l0.3,0.1L56.9,63.7z M55.2,77l-0.3-0.1l26.4-60.8l0.3,0.1L55.2,77
		z"/>
	<defs>
		<filter id="Adobe_OpacityMaskFilter_5_" filterUnits="userSpaceOnUse" x="32.1" y="21.7" width="0.4" height="37.1">
			<feColorMatrix  type="matrix" values="1 0 0 0 0  0 1 0 0 0  0 0 1 0 0  0 0 0 1 0"/>
		</filter>
	</defs>
	<mask maskUnits="userSpaceOnUse" x="32.1" y="21.7" width="0.4" height="37.1" id="mask-2_6_">
		<g class="st13">
			<polygon id="path-1_6_" class="st3" points="-0.2,95.5 260,95.5 260,-0.3 -0.2,-0.3 			"/>
		</g>
	</mask>
	<polygon id="Fill-12" class="st14" points="32.1,58.8 32.5,58.8 32.5,21.7 32.1,21.7 	"/>
	<defs>
		<filter id="Adobe_OpacityMaskFilter_6_" filterUnits="userSpaceOnUse" x="25" y="24.6" width="62" height="51">
			<feColorMatrix  type="matrix" values="1 0 0 0 0  0 1 0 0 0  0 0 1 0 0  0 0 0 1 0"/>
		</filter>
	</defs>
	<mask maskUnits="userSpaceOnUse" x="25" y="24.6" width="62" height="51" id="mask-2_7_">
		<g class="st15">
			<polygon id="path-1_7_" class="st3" points="-0.2,95.5 260,95.5 260,-0.3 -0.2,-0.3 			"/>
		</g>
	</mask>
	<path id="Fill-13" class="st16" d="M36,34.4l17.8,41.1h1.1l17.7-41v28.2c0,8.3-1,9.7-7.8,9.7v1.7H87v-1.7c-6.9,0-7.9-1.4-7.9-9.7
		V35.9c0-8.3,1-9.6,7.9-9.6v-1.7H73.5L56.1,64.8L38.6,24.6H25v1.7c6.9,0,7.8,1.3,7.8,9.6v26.9c0,8.3-1,9.7-7.8,9.7v1.7h18.8v-1.7
		C37,72.5,36,71,36,62.8V34.4z"/>
	<defs>
		<filter id="Adobe_OpacityMaskFilter_7_" filterUnits="userSpaceOnUse" x="20" y="24.5" width="72.1" height="49.9">
			<feColorMatrix  type="matrix" values="1 0 0 0 0  0 1 0 0 0  0 0 1 0 0  0 0 0 1 0"/>
		</filter>
	</defs>
	<mask maskUnits="userSpaceOnUse" x="20" y="24.5" width="72.1" height="49.9" id="mask-2_8_">
		<g class="st17">
			<polygon id="path-1_8_" class="st3" points="-0.2,95.5 260,95.5 260,-0.3 -0.2,-0.3 			"/>
		</g>
	</mask>
	<path id="Fill-14" class="st18" d="M21.9,24.8H25v-0.4h-3.2V24.8z M87,24.8h3.2v-0.4H87V24.8z M20,26.4h4v-0.4h-4V26.4z M88.1,26.4
		h4v-0.4h-4V26.4z M21.9,74.4H90V74H21.9V74.4z"/>
</g>
</svg>
