<?xml version="1.0" encoding="UTF-8"?>
<svg width="84px" height="48px" viewBox="0 0 84 48" version="1.1" xmlns="http://www.w3.org/2000/svg" xmlns:xlink="http://www.w3.org/1999/xlink">
    <!-- Generator: Sketch 55.2 (78181) - https://sketchapp.com -->
    <title>Artboard</title>
    <desc>Created with Sketch.</desc>
    <g id="Artboard" stroke="none" stroke-width="1" fill="none" fill-rule="evenodd" opacity="0.10">
        <g id="Group" transform="translate(-13.000000, -24.000000)" fill="#060000">
            <path d="M18.4697873,33.712831 C18.8150272,34.3004073 19.24785,34.8584521 19.756035,35.3665988 C20.2530175,35.8655804 20.8060124,36.2942974 21.3956699,36.6384929 C21.7052655,36.8197556 21.8906156,37.1395112 21.8906156,37.4959267 C21.8906156,37.8523422 21.7052655,38.1731161 21.3946515,38.3543788 C20.8060124,38.6995927 20.2530175,39.1283096 19.7550166,39.6262729 C19.24785,40.1344196 18.8150272,40.691446 18.4687689,41.2820774 C18.2182408,41.7118126 17.7742154,41.9613035 17.2843618,41.9613035 C17.2283494,41.9613035 17.1713186,41.9582485 17.1142879,41.9511202 C16.5592562,41.8869654 16.1162492,41.5183299 15.955341,40.990835 C15.6131563,39.8584521 15.4410456,38.6843177 15.4410456,37.5 C15.4410456,36.311609 15.6141747,35.1354379 15.9563594,34.00611 C16.1182861,33.4765784 16.561293,33.107943 17.1163247,33.0427699 C17.6815404,32.9735234 18.1907438,33.2352342 18.4697873,33.712831 M19.7051147,29.703666 C20.0737779,29.3380855 20.602331,29.1425662 21.2367984,29.1425662 C21.5413021,29.1425662 21.8132167,29.1863544 21.9883826,29.2250509 C23.0098446,29.4348269 24.1066687,30.0661914 24.9957378,30.9541752 C25.8827701,31.8431772 26.5152007,32.9399185 26.7260109,33.9643585 C26.8410908,34.5203666 26.9327474,35.5570265 26.2432861,36.2433809 C25.8023159,36.6843177 25.2197873,36.8075356 24.7126207,36.8075356 C24.42543,36.8075356 24.1626811,36.7678208 23.9620549,36.7270876 C22.9385561,36.5132383 21.841732,35.8828921 20.9536814,34.9949084 C19.1806352,33.2230143 18.6103274,30.799389 19.7051147,29.703666 M23.999736,25.9602851 C26.2626358,25.2729124 28.729217,25.2718941 30.995172,25.9582485 L30.9961904,25.9582485 C31.5247435,26.1191446 31.8934068,26.5631365 31.9585848,27.1181263 C32.0237628,27.6731161 31.7671243,28.191446 31.29051,28.4714868 C30.7028893,28.814664 30.1458208,29.2474542 29.635599,29.7566191 C29.1335244,30.2576375 28.7047752,30.811609 28.3605537,31.4032587 C28.1782589,31.7138493 27.8564424,31.8971487 27.5010184,31.8971487 L27.5,31.8971487 C27.1435576,31.8961303 26.8227595,31.712831 26.6425015,31.404277 C26.2992984,30.814664 25.8705492,30.2606925 25.3664378,29.7566191 C24.8592713,29.2494908 24.300166,28.8177189 23.7074532,28.4714868 C23.2308389,28.1934827 22.9742004,27.6782077 23.03836,27.1232179 C23.1025196,26.5651731 23.4711829,26.1211813 23.999736,25.9602851 M35.2959037,29.703666 L35.2969221,29.703666 C36.3917094,30.799389 35.8193648,33.2209776 34.0473371,34.9949084 C33.2326116,35.8105906 32.2467939,36.4032587 31.2711602,36.6659878 C30.9269387,36.7586558 30.5979934,36.8034623 30.2904345,36.8034623 C29.6600407,36.8034623 29.1263956,36.6130346 28.7567139,36.2433809 C28.068271,35.5560081 28.1589092,34.5203666 28.2750075,33.9633401 C28.4878546,32.9378819 29.1192667,31.8411405 30.0052806,30.9541752 C31.7039831,29.2556008 34.2204662,28.6354379 35.2959037,29.703666 M37.8846937,33.0448065 C38.4397254,33.1099796 38.8837508,33.4786151 39.0436406,34.00611 C39.3858253,35.1364562 39.5599728,36.311609 39.5599728,37.5 C39.5599728,38.6894094 39.3868437,39.8635438 39.0436406,40.990835 C38.8847692,41.5173116 38.4417622,41.885947 37.8877489,41.9511202 C37.8296998,41.9582485 37.7736874,41.9613035 37.7156382,41.9613035 C37.2257846,41.9613035 36.7827776,41.7118126 36.5312311,41.2820774 C36.1880281,40.694501 35.7562236,40.1364562 35.2449834,39.6272912 C34.7429089,39.1252546 34.1919508,38.6965377 33.6084037,38.3523422 C33.2998265,38.1720978 33.1154949,37.8523422 33.1144765,37.4959267 C33.1144765,37.1405295 33.2988081,36.8197556 33.6084037,36.6384929 C34.1939876,36.296334 34.7449457,35.8676171 35.2449834,35.3665988 C35.757242,34.8553971 36.1880281,34.299389 36.5302127,33.7148676 C36.8092562,33.2352342 37.3266068,32.9755601 37.8846937,33.0448065 M35.2959037,45.2892057 C34.9292773,45.6558045 34.402761,45.8492872 33.7713488,45.8492872 C32.5655552,45.8492872 31.1214544,45.1568228 30.0052806,44.0397149 C29.1192667,43.1527495 28.4878546,42.0560081 28.2750075,41.0305499 C28.1589092,40.4735234 28.068271,39.4368635 28.7556955,38.7505092 L28.7556955,38.7494908 C29.826041,37.6812627 32.3465978,38.2983707 34.0473371,39.9979633 C35.8183464,41.7708758 36.390691,44.194501 35.2959037,45.2892057 M31.000264,49.0397149 C29.8688141,49.3849287 28.6915359,49.5580448 27.5,49.5580448 C26.3084641,49.5580448 25.1301675,49.3849287 23.999736,49.0397149 L23.9987176,49.0397149 C23.4711829,48.8798371 23.1025196,48.4348269 23.0373416,47.8818737 C22.9721635,47.3268839 23.2288021,46.8075356 23.7054164,46.5285132 C24.2971107,46.1812627 24.8562161,45.7464358 25.3654194,45.2372709 C25.8705492,44.7311609 26.2992984,44.1782077 26.6414831,43.5906314 C26.8237779,43.2800407 27.144576,43.0967413 27.5,43.0967413 L27.5020368,43.0967413 C27.8584792,43.0977597 28.1792773,43.2820774 28.3585169,43.5906314 C28.7037568,44.1812627 29.132506,44.7342159 29.6345806,45.2362525 C30.1437839,45.7464358 30.7018709,46.1812627 31.2935652,46.5285132 C31.7711979,46.8075356 32.0278365,47.3258656 31.9636768,47.8808554 C31.8974804,48.4348269 31.5288171,48.8798371 31.000264,49.0397149 M19.7040963,45.2892057 C18.609309,44.194501 19.1796168,41.7698574 20.9526629,39.9989817 C21.841732,39.1099796 22.9375377,38.4806517 23.9600181,38.2668024 C24.9132468,38.0723014 25.7361195,38.2433809 26.2432861,38.7494908 C26.9296922,39.4358452 26.8400724,40.4725051 26.7260109,41.0295316 C26.5141823,42.0549898 25.8817517,43.1507128 24.9947194,44.0397149 C23.8337357,45.200611 22.3947269,45.8462322 21.230688,45.8462322 C20.6186255,45.8462322 20.0809068,45.6659878 19.7040963,45.2892057 M14,37.5 C14,44.9439919 20.056465,51 27.5,51 C34.943535,51 41,44.9439919 41,37.5 C41,30.0560081 34.943535,24 27.5,24 C20.056465,24 14,30.0560081 14,37.5" id="Fill-228"></path>
            <path d="M3.11315204,65.9517972 C2.55915966,65.8886584 2.11616943,65.5189907 1.9562856,64.9894391 C1.61411383,63.8600686 1.44099121,62.6858899 1.44099121,61.5005092 C1.44099121,60.3120733 1.61411383,59.1368762 1.95730396,58.005469 L1.95730396,58.0044506 C2.11820616,57.4769358 2.56221476,57.1082865 3.11620714,57.0420926 C3.67121789,56.9779354 4.19058575,57.2335458 4.46961868,57.7131973 C4.81382718,58.3007958 5.24663373,58.856825 5.7558179,59.3670275 C6.25481839,59.866028 6.80677404,60.2947611 7.39539094,60.6399879 C7.70497492,60.8192208 7.89133633,61.1400068 7.89133633,61.4964357 C7.89133633,61.8528646 7.70701165,62.1726323 7.39539094,62.3549202 C6.80677404,62.7001471 6.25481839,63.1288802 5.75479953,63.6278807 C5.24663373,64.1350281 4.81382718,64.6920756 4.46860031,65.2827292 C4.2180817,65.7124807 3.77509146,65.9619809 3.28423792,65.9619809 C3.22720929,65.9619809 3.17119903,65.9589258 3.11315204,65.9517972 M5.70591785,53.7038811 C6.21204692,53.1967337 7.05627428,53.0297213 7.98706295,53.2221929 C9.0084864,53.4340135 10.1052691,54.0654019 10.995323,54.9544374 C11.8833402,55.8424546 12.5137103,56.9402557 12.7255309,57.9637159 C12.8426432,58.5187267 12.9342964,59.5554256 12.2428243,60.244861 C11.8039075,60.6847961 11.2203825,60.8070003 10.7111983,60.8070003 C10.4260551,60.8070003 10.1643345,60.7683023 9.96473428,60.7275676 C8.93618225,60.5137103 7.84041791,59.8833402 6.95443745,58.9943047 C5.18247652,57.2223438 4.61015351,54.7996455 5.70591785,53.7038811 M10.0024139,49.9593407 C12.2580998,49.2719421 14.7286614,49.2699053 16.9955494,49.957304 L16.9965677,49.957304 C17.5240825,50.1192245 17.8937502,50.5632331 17.9589258,51.1162071 C18.0241014,51.6722363 17.7674726,52.1905858 17.2898578,52.4716554 C16.7032776,52.8148455 16.1462302,53.2476521 15.6350092,53.7568363 C15.1309169,54.261947 14.7021838,54.814921 14.3600121,55.4025195 C14.1777241,55.7131219 13.8569381,55.8974465 13.5015276,55.8974465 L13.5005092,55.8974465 C13.1430619,55.8964282 12.8232942,55.7121035 12.6420247,55.4035379 C12.2998529,54.814921 11.8711198,54.261947 11.3670275,53.7568363 C10.8598801,53.2496888 10.3018142,52.8179007 9.70708709,52.4716554 C9.23150907,52.1936409 8.97488025,51.6763097 9.03903745,51.121299 C9.10319466,50.5652699 9.471844,50.1212613 10.0024139,49.9593407 M21.2961189,53.7038811 L21.2971373,53.7048995 C22.3908649,54.8006638 21.8195602,57.2223438 20.0486177,58.995323 C19.2329046,59.8100177 18.2471241,60.4027081 17.2725455,60.6654471 C16.9263003,60.7581187 16.596349,60.8039452 16.2898201,60.8039452 C15.6604684,60.8039452 15.1258251,60.612492 14.7581941,60.2438426 C14.0687587,59.5554256 14.1593935,58.5207634 14.2744691,57.9626975 C14.4873081,56.9392374 15.1186965,55.8424546 16.0056953,54.9544374 C17.1228454,53.8372874 18.5658733,53.1447969 19.7716215,53.1447969 C20.4019915,53.1447969 20.9284879,53.3382869 21.2961189,53.7038811 M23.8848112,57.0441293 C24.4388036,57.1103232 24.8828122,57.4789726 25.042696,58.0064874 C25.3848678,59.1368762 25.5590088,60.3120733 25.5590088,61.5005092 C25.5590088,62.6858899 25.3858862,63.8600686 25.0437144,64.9894391 C24.8838306,65.5179723 24.4408403,65.88764 23.886848,65.9517972 C23.8308377,65.9589258 23.7727907,65.9619809 23.7147437,65.9619809 C23.2259269,65.9619809 22.7819183,65.7124807 22.5303813,65.2827292 C22.1851545,64.6910572 21.7523479,64.1340097 21.2452005,63.6278807 C20.7451816,63.1278618 20.193226,62.6981104 19.6086825,62.3528835 C19.3001169,62.1726323 19.1147739,61.8508279 19.1147739,61.4964357 C19.1147739,61.1400068 19.3001169,60.8192208 19.6097009,60.6389696 C20.1922076,60.2967978 20.7441632,59.8701015 21.2452005,59.3670275 C21.7543846,58.8588617 22.1861728,58.3028326 22.529363,57.7142157 C22.8094142,57.2335458 23.3389658,56.9809905 23.8848112,57.0441293 M21.2961189,69.2889903 C20.9284879,69.6566213 20.4019915,69.8490929 19.7706031,69.8490929 C18.564855,69.8490929 17.1228454,69.1566024 16.0056953,68.0394523 C15.1186965,67.1514351 14.4873081,66.0566892 14.2744691,65.0301739 C14.1593935,64.4731264 14.0677404,63.4374458 14.7571757,62.7500471 C15.830536,61.6777053 18.3448874,62.29891 20.0486177,63.9975484 C21.8195602,65.7705277 22.3898465,68.1952627 21.2961189,69.2889903 M17.0006412,73.0406593 C15.8702523,73.3848678 14.6920002,73.5590088 13.5005092,73.5590088 C12.3079998,73.5590088 11.1297477,73.3848678 10.0013955,73.0406593 L10.0003772,73.0406593 C9.471844,72.8797571 9.10217629,72.4357485 9.03700072,71.8817561 C8.97284351,71.325727 9.22845397,70.8094142 9.70606872,70.5273262 C10.2977407,70.1820993 10.856825,69.7482744 11.3660091,69.2390903 C11.8701015,68.7319428 12.2988345,68.1789688 12.6410063,67.5903519 C13.0066005,66.9701656 13.9954362,66.9711839 14.3579753,67.5893335 C14.7011655,68.1789688 15.1298985,68.7319428 15.6339909,69.2390903 C16.1452118,69.7492928 16.704296,70.1820993 17.2939313,70.5273262 C17.771546,70.8094142 18.0291932,71.325727 17.9629993,71.8817561 C17.8978237,72.4357485 17.5291744,72.8797571 17.0006412,73.0406593 M5.70489948,69.2889903 C4.60913514,68.1942443 5.18145815,65.7705277 6.95341908,63.9985667 C7.84143628,63.1095312 8.93821899,62.4791612 9.96269754,62.2673405 C10.9209822,62.0748689 11.7377136,62.2449364 12.2438426,62.7500471 C12.9322596,63.4374458 12.8416249,64.4731264 12.7255309,65.0301739 C12.5126919,66.0577075 11.8813035,67.1534719 10.995323,68.0394523 C9.83438313,69.2003923 8.39441029,69.8450194 7.23143364,69.8450194 C6.61837589,69.8450194 6.08169577,69.666805 5.70489948,69.2889903 M13.5005092,75 C20.9437634,75 27,68.9437634 27,61.5005092 C27,54.0562366 20.9437634,48 13.5005092,48 C6.05623656,48 0,54.0562366 0,61.5005092 C0,68.9437634 6.05623656,75 13.5005092,75" id="Fill-248"></path>
            <path d="M31.113152,65.9517972 C30.5591597,65.88764 30.1161694,65.5179723 29.9562856,64.9894391 C29.6151322,63.8631238 29.4420096,62.6879267 29.4420096,61.5005092 C29.4420096,60.3079998 29.6161506,59.1328028 29.9593407,58.0044506 C30.1192245,57.4769358 30.5622148,57.1093049 31.1162071,57.0420926 C31.674273,56.9758986 32.1926225,57.2335458 32.470637,57.7131973 C32.8138272,58.2987591 33.2456154,58.8558066 33.7558179,59.3670275 C34.2558368,59.866028 34.8077924,60.2947611 35.3974277,60.6389696 C35.7070117,60.8192208 35.8913363,61.1400068 35.8923547,61.4964357 C35.8923547,61.8508279 35.70803,62.1726323 35.398446,62.3539019 C34.8077924,62.7001471 34.2558368,63.1288802 33.7547995,63.6278807 C33.2456154,64.1370648 32.8138272,64.693094 32.4696187,65.2817109 C32.2180817,65.7124807 31.7750915,65.9619809 31.2852563,65.9619809 C31.2272093,65.9619809 31.171199,65.9589258 31.113152,65.9517972 M33.7059179,53.7038811 C34.0725305,53.3382869 34.602082,53.1427602 35.2365255,53.1427602 C35.5399992,53.1427602 35.812922,53.18655 35.9880813,53.2221929 C37.0095048,53.4340135 38.1062875,54.0654019 38.995323,54.9544374 C39.8823219,55.8404179 40.5137103,56.938219 40.7265492,57.9626975 C40.8426432,58.5207634 40.9322596,59.5574624 40.2428243,60.244861 C39.8039075,60.6847961 39.2203825,60.8070003 38.7111983,60.8070003 C38.4260551,60.8070003 38.1643345,60.7683023 37.9637159,60.7275676 C36.9392374,60.5147286 35.8424546,59.8833402 34.9544374,58.995323 C33.1824765,57.2223438 32.6101535,54.7996455 33.7059179,53.7038811 M38.0034323,49.9593407 C40.2601365,49.2719421 42.7317165,49.2709237 44.9965677,49.957304 L44.9975861,49.957304 C45.5240825,50.1192245 45.8947686,50.5632331 45.9589258,51.1162071 C46.0241014,51.6722363 45.7674726,52.1905858 45.2898578,52.4716554 C44.7032776,52.8148455 44.1462302,53.2476521 43.6350092,53.7568363 C43.1309169,54.261947 42.7021838,54.814921 42.3600121,55.4025195 C42.1777241,55.7131219 41.8569381,55.8974465 41.5015276,55.8974465 L41.5005092,55.8974465 C41.1430619,55.8964282 40.8222759,55.7121035 40.6420247,55.4035379 C40.2988345,54.8118659 39.8701015,54.2599102 39.3670275,53.7568363 C38.8608984,53.2496888 38.3028326,52.8179007 37.7070871,52.4726738 C37.2315091,52.1936409 36.9748802,51.6763097 37.0380191,51.121299 C37.1031947,50.5652699 37.4728624,50.1212613 38.0034323,49.9593407 M49.2961189,53.7038811 L49.2971373,53.7038811 C49.8470562,54.2548184 50.0008298,55.1723683 49.7177234,56.2192509 C49.4560027,57.1948478 48.862294,58.1806284 48.0486177,58.995323 C46.9314676,60.1124731 45.4884396,60.805982 44.2826915,60.805982 C43.6513031,60.805982 43.1248067,60.6104552 42.7581941,60.2438426 C42.066722,59.5533889 42.1593935,58.5187267 42.2765059,57.9626975 C42.4873081,56.9402557 43.1186965,55.8424546 44.0056953,54.9544374 C45.1228454,53.8372874 46.5658733,53.1447969 47.7716215,53.1447969 C48.4019915,53.1447969 48.9284879,53.3382869 49.2961189,53.7038811 M51.8837929,57.0441293 C52.4388036,57.1093049 52.8828122,57.4769358 53.042696,58.0064874 C53.3858862,59.138913 53.5590088,60.3130917 53.5590088,61.5005092 C53.5590088,62.6879267 53.3858862,63.8631238 53.0447328,64.9894391 C52.8838306,65.5189907 52.439822,65.8886584 51.8858296,65.9517972 C51.828801,65.9589258 51.7717723,65.9619809 51.7157621,65.9619809 C51.2259269,65.9619809 50.7819183,65.7114623 50.5313997,65.2817109 C50.1851545,64.6910572 49.7523479,64.1329914 49.2452005,63.6278807 C48.7431449,63.1258251 48.1922076,62.6960736 47.6086825,62.3528835 C47.3011353,62.1716139 47.1147739,61.8498095 47.1147739,61.4964357 C47.1147739,61.1410252 47.3011353,60.8192208 47.6086825,60.6389696 C48.1922076,60.2967978 48.7441632,59.8701015 49.2452005,59.3670275 C49.7533663,58.8588617 50.1861728,58.3028326 50.5303813,57.7131973 C50.8094142,57.2355825 51.3287821,56.9820088 51.8837929,57.0441293 M49.2961189,69.2889903 C48.9264512,69.658658 48.3938445,69.8480745 47.7634745,69.8480745 C47.4559273,69.8480745 47.1269943,69.8032663 46.7807491,69.7105948 C45.8071889,69.4498925 44.8214084,68.8561838 44.0056953,68.0394523 C43.1186965,67.1514351 42.4873081,66.0556708 42.2754875,65.0291555 C42.1593935,64.4751631 42.066722,63.4394825 42.7571757,62.7510655 L42.7571757,62.7500471 C43.830536,61.6766869 46.3469242,62.29891 48.0486177,63.9975484 C49.8195602,65.7705277 50.3908649,68.1942443 49.2961189,69.2889903 M45.0016596,73.0406593 C43.8702523,73.3848678 42.6920002,73.5590088 41.5005092,73.5590088 C40.3090182,73.5590088 39.1317844,73.3848678 38.0013955,73.0406593 L38.0003772,73.0406593 C37.471844,72.8797571 37.1031947,72.4357485 37.0370007,71.8817561 C36.9728435,71.325727 37.2294723,70.8094142 37.7060687,70.5273262 C38.295704,70.1831177 38.8537698,69.7503112 39.3660091,69.2390903 C39.8680647,68.7349979 40.2967978,68.1820239 40.6420247,67.5903519 C41.0045638,66.9711839 41.9954362,66.9701656 42.3589937,67.5903519 C42.7011655,68.1789688 43.1298985,68.7319428 43.6339909,69.2390903 C44.1462302,69.7492928 44.7053144,70.1831177 45.2949496,70.5273262 C45.771546,70.8094142 46.0281749,71.3267454 45.9629993,71.8817561 C45.8988421,72.4357485 45.5301927,72.8797571 45.0016596,73.0406593 M35.2355071,69.8470562 C34.6081922,69.8470562 34.0735488,69.658658 33.7048995,69.2889903 C32.6091351,68.1942443 33.1824765,65.7705277 34.9544374,63.9975484 C35.8424546,63.1095312 36.9392374,62.4791612 37.9637159,62.2673405 C38.9087617,62.0728322 39.7377136,62.2428997 40.2438426,62.7510655 C40.9302229,63.435409 40.8416249,64.4710897 40.7265492,65.0291555 C40.5137103,66.0577075 39.8813035,67.1534719 38.9943047,68.0394523 C38.17961,68.854147 37.1938294,69.4488741 36.2192509,69.7105948 C35.8740241,69.802248 35.5440727,69.8470562 35.2355071,69.8470562 M41.5005092,75 C48.9437634,75 55,68.9437634 55,61.5005092 C55,54.0562366 48.9437634,48 41.5005092,48 C34.0562366,48 28,54.0562366 28,61.5005092 C28,68.9437634 34.0562366,75 41.5005092,75" id="Fill-250"></path>
            <path d="M67.0436406,34.0068648 C67.3858253,35.1362779 67.5599728,36.3115193 67.5599728,37.5010184 C67.5599728,38.6905175 67.3868437,39.8647405 67.044659,40.99008 C66.8847692,41.5186331 66.4407438,41.8883147 65.8867305,41.9524744 C65.8286814,41.9596032 65.772669,41.9626584 65.7156382,41.9626584 C65.2247661,41.9626584 64.7817592,41.7131488 64.5302127,41.2823627 C64.1870097,40.6937236 63.7541868,40.1356367 63.243965,39.6284701 C62.7429089,39.1253772 62.1919508,38.6966279 61.6084037,38.3534249 C61.3008449,38.1731669 61.1144765,37.8523687 61.1144765,37.4969448 C61.1144765,37.1405024 61.2998265,36.8197043 61.6094221,36.6384279 C62.1939876,36.2962432 62.7439273,35.8685124 63.243965,35.3664378 C63.7552052,34.8572345 64.1870097,34.3011844 64.5302127,33.7156005 C64.8092562,33.2359309 65.3276252,32.9762372 65.8846937,33.0444704 C66.4397254,33.1096485 66.8837508,33.4793301 67.0436406,34.0068648 M63.2959037,45.2897933 C62.9292773,45.6574381 62.4017426,45.8509354 61.7713488,45.8509354 C60.5655552,45.8509354 59.1214544,45.1574004 58.0042622,44.0391898 C57.1182483,43.1521575 56.4868361,42.0563518 56.276026,41.0308162 C56.1578908,40.4737477 56.0672526,39.4390465 56.7567139,38.7495851 C57.1243588,38.3819403 57.6508751,38.1894614 58.2812689,38.1894614 C59.4870625,38.1894614 60.9291264,38.881978 62.0463186,39.9981518 C63.8193648,41.7711979 64.390691,44.195006 63.2959037,45.2897933 M58.9992456,49.0416038 C57.8698325,49.3858253 56.6915359,49.5589544 55.5010184,49.5589544 C54.3074457,49.5589544 53.1311859,49.3858253 51.999736,49.0416038 C51.4722013,48.8806955 51.1015012,48.4376886 51.03836,47.8826569 C50.9721635,47.3286436 51.2277836,46.8082378 51.7054164,46.5281759 C52.2981291,46.182936 52.8562161,45.7480763 53.364401,45.238873 C53.8685124,44.7347616 54.2972616,44.1807483 54.6414831,43.5910908 C54.8237779,43.2804768 55.1435576,43.0961451 55.5010184,43.0961451 L55.5030552,43.0961451 C55.8574608,43.0971635 56.1782589,43.2814952 56.3585169,43.5910908 C56.7027384,44.1807483 57.1314876,44.7347616 57.6345806,45.2378546 C58.1437839,45.7480763 58.7018709,46.182936 59.2925468,46.5281759 C59.7701795,46.8082378 60.026818,47.3266068 59.9636768,47.8816385 C59.8974804,48.4366702 59.5298355,48.8806955 58.9992456,49.0416038 M49.23578,45.8488986 C48.6074231,45.8488986 48.0727595,45.659475 47.7040963,45.2897933 C46.609309,44.195006 47.1806352,41.7701795 48.9526629,39.9981518 C49.8407136,39.1111195 50.9375377,38.4807257 51.9610365,38.2678787 C52.9020444,38.0723446 53.7371379,38.2414001 54.2443045,38.7495851 C54.9296922,39.4370097 54.8410908,40.4717109 54.7260109,41.0297978 C54.5131639,42.0573702 53.8797148,43.1541943 52.993701,44.0391898 C52.179994,44.8539152 51.1931578,45.4476463 50.2185425,45.7114137 C49.8743211,45.8030703 49.5433389,45.8488986 49.23578,45.8488986 M45.2843618,41.9626584 C45.227331,41.9626584 45.1703002,41.9596032 45.1132695,41.9524744 C44.5582378,41.8883147 44.1152308,41.5176147 43.955341,40.9890616 C43.6131563,39.8596485 43.4400272,38.6854255 43.4400272,37.5010184 C43.4400272,36.3115193 43.6131563,35.1362779 43.9573778,34.0058464 C44.1182861,33.4772933 44.5602746,33.1086301 45.1153063,33.0414152 C45.6693196,32.978274 46.1897254,33.2338941 46.4697873,33.7125453 C46.8129903,34.2991476 47.2458132,34.8562161 47.756035,35.3654194 C48.2550543,35.867494 48.8080492,36.2942064 49.3966883,36.6384279 C49.7062839,36.8197043 49.8906156,37.139484 49.8906156,37.4969448 C49.8906156,37.8523687 49.7073024,38.1731669 49.3966883,38.3544433 C48.8080492,38.6996832 48.2540359,39.127414 47.7550166,39.6284701 C47.2458132,40.1366551 46.8129903,40.6937236 46.4687689,41.2823627 C46.2182408,41.7131488 45.7742154,41.9626584 45.2843618,41.9626584 M47.7051147,29.7040963 C48.2132996,29.1969297 49.0616325,29.0288926 49.9873642,29.2234083 C51.0088262,29.4342185 52.1066687,30.0656307 52.9957378,30.9546998 C53.8827701,31.841732 54.5141823,32.9395745 54.7260109,33.9630733 C54.8421092,34.5201418 54.9327474,35.5568799 54.2432861,36.2453229 C53.8023159,36.6852746 53.2197873,36.8074834 52.7116023,36.8074834 C52.42543,36.8074834 52.1626811,36.7687839 51.9620549,36.7270293 C50.9365193,36.5141823 49.8407136,35.8827701 48.9536814,34.9957378 C47.1816536,33.2226916 46.6103274,30.7999019 47.7051147,29.7040963 M52.0007544,25.9583962 C54.2626358,25.27199 56.7312538,25.2709716 58.995172,25.9563594 C59.5247435,26.1182861 59.8934068,26.5623114 59.9585848,27.1163247 C60.0227444,27.6723748 59.7661059,28.1907438 59.2894916,28.4708057 C58.7018709,28.8140088 58.1448024,29.2468316 57.6345806,29.756035 C57.1335244,30.2591279 56.7037568,30.8131412 56.3595353,31.4038171 C56.1782589,31.7134128 55.8564424,31.8977444 55.5010184,31.8977444 C55.1435576,31.8977444 54.8237779,31.7123944 54.6425015,31.4038171 C54.29828,30.8131412 53.8685124,30.2591279 53.3654194,29.756035 C52.8582529,29.2488684 52.300166,28.8160456 51.7074532,28.4718241 C51.2308389,28.193799 50.9742004,27.6774668 51.03836,27.1224351 C51.1025196,26.5643482 51.4722013,26.1203229 52.0007544,25.9583962 M63.2959037,29.7040963 L63.2969221,29.7040963 C64.3917094,30.7999019 63.8203832,33.2226916 62.0463186,34.9957378 C61.2326116,35.8104632 60.2467939,36.4041943 59.2711602,36.6669433 C58.9269387,36.7596183 58.596975,36.8034098 58.2894161,36.8034098 C57.6600407,36.8034098 57.1263956,36.6129677 56.7567139,36.2443045 C56.0672526,35.5548431 56.1578908,34.5191234 56.276026,33.9620549 C56.4868361,32.9395745 57.1182483,31.841732 58.0042622,30.9546998 C59.7050015,29.2549789 62.2204662,28.6347692 63.2959037,29.7040963 M55.5010184,24 C48.056465,24 42,30.056465 42,37.5010184 C42,44.943535 48.056465,51 55.5010184,51 C62.943535,51 69,44.943535 69,37.5010184 C69,30.056465 62.943535,24 55.5010184,24" id="Fill-401"></path>
            <path d="M95.0436406,34.0068648 C95.3868437,35.1362779 95.5599728,36.3115193 95.5599728,37.5010184 C95.5599728,38.6905175 95.3868437,39.8647405 95.044659,40.99008 C94.8847692,41.5186331 94.4417622,41.8883147 93.8877489,41.9524744 C93.8286814,41.9596032 93.7736874,41.9626584 93.7156382,41.9626584 C93.2257846,41.9626584 92.7827776,41.7131488 92.5302127,41.2833811 C92.1870097,40.6937236 91.7552052,40.1366551 91.2449834,39.6284701 C90.7429089,39.1253772 90.1919508,38.6966279 89.6094221,38.3534249 C89.3008449,38.1731669 89.1154949,37.8523687 89.1154949,37.4969448 C89.1154949,37.1405024 89.3008449,36.8197043 89.6094221,36.6384279 C90.1939876,36.2962432 90.7439273,35.8685124 91.2449834,35.3664378 C91.7562236,34.8562161 92.1870097,34.300166 92.5302127,33.7156005 C92.8102746,33.2359309 93.329662,32.9762372 93.8857121,33.0444704 C94.4397254,33.1096485 94.8837508,33.4793301 95.0436406,34.0068648 M91.2959037,45.2897933 C90.9292773,45.6574381 90.4017426,45.8509354 89.7713488,45.8509354 C88.5655552,45.8509354 87.1224728,45.1574004 86.0052806,44.0391898 C85.1192667,43.1521575 84.4878546,42.0573702 84.276026,41.0308162 C84.1589092,40.4737477 84.068271,39.4380281 84.7567139,38.7495851 C85.1243588,38.3819403 85.6518935,38.1894614 86.2822873,38.1894614 C87.4890993,38.1894614 88.9311632,38.881978 90.0483555,39.9981518 C91.8203832,41.7711979 92.3917094,44.195006 91.2959037,45.2897933 M87.000264,49.0416038 C85.8698325,49.3858253 84.6925543,49.5589544 83.5010184,49.5589544 C82.3074457,49.5589544 81.1311859,49.3858253 79.999736,49.0416038 C79.4722013,48.8806955 79.1025196,48.4376886 79.03836,47.8826569 C78.9721635,47.3286436 79.2288021,46.8082378 79.7064348,46.5281759 C80.2981291,46.182936 80.8562161,45.7480763 81.364401,45.238873 C81.8695308,44.7347616 82.29828,44.1807483 82.6414831,43.5910908 C82.8237779,43.2804768 83.144576,43.0961451 83.5010184,43.0961451 L83.5020368,43.0961451 C83.8574608,43.0961451 84.1782589,43.2804768 84.3595353,43.5910908 C84.7027384,44.1807483 85.1314876,44.7347616 85.6345806,45.2378546 C86.1458208,45.7501132 86.7049261,46.1839544 87.2945836,46.5281759 C87.7711979,46.8082378 88.0278365,47.3286436 87.9636768,47.8826569 C87.8974804,48.4376886 87.5298355,48.8806955 87.000264,49.0416038 M77.2367984,45.8488986 C76.6074231,45.8488986 76.0737779,45.659475 75.7040963,45.2897933 C74.6103274,44.195006 75.1816536,41.7701795 76.9526629,39.9981518 C77.8407136,39.1111195 78.9385561,38.4797073 79.9630733,38.2678787 C80.8928787,38.073363 81.7361195,38.2414001 82.2443045,38.7495851 C82.9307106,39.4370097 82.8410908,40.4717109 82.7270293,41.0297978 C82.5141823,42.0563518 81.8817517,43.1521575 80.9947194,44.0391898 C80.179994,44.8539152 79.1941762,45.4476463 78.219561,45.7114137 C77.8753395,45.8030703 77.5433389,45.8488986 77.2367984,45.8488986 M73.2853802,41.9626584 C73.227331,41.9626584 73.1713186,41.9596032 73.1132695,41.9524744 C72.5582378,41.8883147 72.1162492,41.5186331 71.955341,40.9890616 C71.6131563,39.8606669 71.4400272,38.6864439 71.4400272,37.5010184 C71.4400272,36.3094825 71.6141747,35.1342411 71.9573778,34.0058464 C72.1182861,33.4772933 72.5602746,33.1086301 73.1153063,33.0414152 C73.670338,32.978274 74.1897254,33.2338941 74.4708057,33.7125453 C74.8129903,34.2991476 75.2458132,34.8562161 75.756035,35.3654194 C76.2550543,35.867494 76.8080492,36.2942064 77.3966883,36.6384279 C77.7073024,36.8197043 77.8906198,37.139484 77.8906198,37.4969448 C77.891634,37.8523687 77.7073024,38.1731669 77.3977067,38.3544433 C76.8080492,38.6996832 76.2550543,39.127414 75.7550166,39.6284701 C75.2458132,40.1366551 74.8140088,40.6937236 74.4697873,41.2823627 C74.2182408,41.7131488 73.7742154,41.9626584 73.2853802,41.9626584 M75.7051147,29.7040963 C76.0737779,29.3374698 76.6033494,29.1419357 77.2367984,29.1419357 C77.5413021,29.1419357 77.8132167,29.1867456 77.9883826,29.2244267 C79.0088262,29.4342185 80.1066687,30.0656307 80.9957378,30.9546998 C81.8827701,31.841732 82.5152007,32.9395745 82.7260109,33.9630733 C82.8421092,34.5201418 82.9337658,35.5568799 82.2443045,36.2453229 C81.8033343,36.6852746 81.2208057,36.8074834 80.7126207,36.8074834 C80.42543,36.8074834 80.1626811,36.7687839 79.9630733,36.7270293 C78.9375377,36.5141823 77.8407136,35.8827701 76.9536814,34.9957378 C75.1816536,33.2226916 74.6113458,30.7999019 75.7051147,29.7040963 M80.0007544,25.9583962 C82.2616174,25.2730084 84.7312538,25.2709716 86.995172,25.9563594 L86.9961904,25.9563594 C87.5247435,26.1182861 87.8934068,26.5623114 87.9596032,27.1163247 C88.0237628,27.6723748 87.7671243,28.1907438 87.29051,28.4708057 C86.7008524,28.8150272 86.1448024,29.24785 85.635599,29.756035 C85.1335244,30.2591279 84.7047752,30.8131412 84.3605537,31.4038171 C84.1782589,31.7134128 83.8564424,31.8977444 83.5020368,31.8977444 L83.5010184,31.8977444 C83.1435576,31.896726 82.8237779,31.7123944 82.6425015,31.4038171 C82.29828,30.8131412 81.8695308,30.2591279 81.3664378,29.756035 C80.8592713,29.2488684 80.3011844,28.8160456 79.7074532,28.4718241 C79.2308389,28.193799 78.9742004,27.6774668 79.0393784,27.1214167 C79.1025196,26.5643482 79.4722013,26.1203229 80.0007544,25.9583962 M91.2959037,29.7040963 L91.2969221,29.7040963 C92.3917094,30.7999019 91.8203832,33.2216732 90.0483555,34.9957378 C89.2326116,35.8104632 88.2467939,36.4041943 87.2721786,36.6669433 C86.9269387,36.7596183 86.596975,36.8034098 86.2904345,36.8034098 C85.6600407,36.8034098 85.1263956,36.6129677 84.7577323,36.2443045 C84.068271,35.5548431 84.1589092,34.5201418 84.276026,33.9630733 C84.4878546,32.9385561 85.1192667,31.841732 86.0052806,30.9546998 C87.7060199,29.2549789 90.2235214,28.6357876 91.2959037,29.7040963 M83.5010184,24 C76.056465,24 70,30.056465 70,37.5010184 C70,44.943535 76.056465,51 83.5010184,51 C90.943535,51 97,44.943535 97,37.5010184 C97,30.056465 90.943535,24 83.5010184,24" id="Fill-403"></path>
            <path d="M65.999736,73.0405854 C65.4711829,72.8806955 65.1025196,72.4356518 65.0373416,71.8806201 C64.973182,71.3255884 65.2298205,70.8082378 65.7084716,70.5271575 C66.2991476,70.1819176 66.8562161,69.7480763 67.3654194,69.238873 C67.8685124,68.7337432 68.29828,68.1797299 68.6414831,67.5900724 C68.8237779,67.2804768 69.144576,67.0951267 69.5010184,67.0951267 L69.5020368,67.0951267 C69.8574608,67.0951267 70.1792773,67.2804768 70.3595353,67.5900724 C70.7027384,68.1797299 71.1314876,68.7337432 71.6345806,69.2378546 C72.1437839,69.7480763 72.7028893,70.1819176 73.2935652,70.5271575 C73.7711979,70.8082378 74.0278365,71.3255884 73.9636768,71.8806201 C73.8984988,72.4356518 73.530854,72.8806955 73.000264,73.0405854 C71.8688141,73.3858253 70.6925543,73.5589544 69.5010184,73.5589544 C68.3084641,73.5589544 67.1311859,73.3858253 66.0007544,73.0405854 L65.999736,73.0405854 Z M61.7040963,69.2877565 C60.609309,68.1929692 61.1806352,65.7701795 62.9526629,63.9981518 C63.841732,63.1090827 64.9385561,62.4786889 65.9630733,62.2678787 C66.9193573,62.073363 67.7391747,62.2444553 68.2443045,62.7506035 C68.9307106,63.4359912 68.8410908,64.4717109 68.7270293,65.0308162 C68.5131639,66.0573702 67.8817517,67.1541943 66.9947194,68.0402082 C65.8337357,69.2001735 64.3937085,69.844825 63.230688,69.844825 C62.6186255,69.844825 62.0819252,69.6666038 61.7040963,69.2877565 L61.7040963,69.2877565 Z M59.2843618,65.9626584 C59.2283494,65.9626584 59.1713186,65.9596032 59.1132695,65.9514559 C58.5592562,65.8883147 58.1162492,65.5186331 57.955341,64.9890616 C57.6131563,63.8596485 57.4400272,62.6854255 57.4400272,61.5 C57.4400272,60.3105009 57.6141747,59.1342411 57.9573778,58.004828 C58.1172677,57.4762749 58.561293,57.1065932 59.1163247,57.0424336 C59.67543,56.9813292 60.1907438,57.2338941 60.4708057,57.7125453 C60.8150272,58.300166 61.2468316,58.8551976 61.756035,59.3654194 C62.2550543,59.8654572 62.8070308,60.293188 63.3977067,60.6374095 C63.7062839,60.8197043 63.8906156,61.1384656 63.891634,61.4959264 C63.891634,61.8523687 63.7073024,62.1721485 63.3977067,62.3544433 C62.8070308,62.6996832 62.2550543,63.127414 61.7550166,63.6284701 C61.24785,64.1356367 60.8150272,64.6927052 60.4697873,65.2833811 C60.2182408,65.7131488 59.7742154,65.9626584 59.2843618,65.9626584 L59.2843618,65.9626584 Z M61.7051147,53.7040963 C62.0778515,53.330341 62.5931654,53.1409173 63.23578,53.1409173 C63.5392652,53.1409173 63.8121982,53.1857272 63.9873642,53.2223899 C65.0098446,53.4342185 66.1066687,54.0635938 66.9957378,54.9536814 C67.8827701,55.8407136 68.5131639,56.9375377 68.7260109,57.9620549 C68.8431276,58.518105 68.9337658,59.5548431 68.2443045,60.2443045 C67.8033343,60.6842562 67.2218241,60.8054466 66.7105839,60.8054466 C66.42543,60.8054466 66.1636995,60.7677655 65.9640917,60.7260109 C64.9385561,60.5131639 63.841732,59.8827701 62.9536814,58.9947194 C61.1816536,57.2216732 60.609309,54.7988835 61.7051147,53.7040963 L61.7051147,53.7040963 Z M66.0017728,49.9573778 C68.2616174,49.27199 70.7312538,49.27199 72.9961904,49.9563594 C73.5257619,50.1172677 73.8944252,50.5623114 73.9596032,51.1163247 C74.0247812,51.6723748 73.7671243,52.1897254 73.2894916,52.4697873 C72.7039077,52.8129903 72.1468392,53.2458132 71.635599,53.756035 C71.132506,54.2591279 70.7027384,54.8131412 70.3605537,55.4027987 C70.1792773,55.7123944 69.8574608,55.8977444 69.5010184,55.8977444 C69.1435576,55.896726 68.8237779,55.711376 68.6414831,55.4038171 C68.29828,54.8131412 67.8695308,54.2591279 67.3664378,53.756035 C66.8602897,53.24785 66.3022028,52.817064 65.7084716,52.4708057 C65.2308389,52.1927806 64.9742004,51.67543 65.0373416,51.1214167 C65.1025196,50.5653666 65.4722013,50.1203229 66.0017728,49.9573778 L66.0017728,49.9573778 Z M77.2969221,53.7040963 L77.2969221,53.7040963 C77.8468618,54.2530175 78.0016596,55.1716204 77.7175241,56.2185425 C77.4557936,57.1931578 76.8620625,58.1789756 76.0483555,58.9947194 C75.2336301,59.8094448 74.2478123,60.4021575 73.273197,60.6659249 C72.9279572,60.7575815 72.596975,60.8023914 72.2904345,60.8023914 C71.6610591,60.8023914 71.127414,60.6119493 70.7577323,60.2443045 C70.0672526,59.5538247 70.1589092,58.5170866 70.2750075,57.9620549 C70.4878546,56.9375377 71.1192667,55.8407136 72.0052806,54.9536814 C73.7060199,53.2549789 76.2235214,52.6337508 77.2969221,53.7040963 L77.2969221,53.7040963 Z M79.8857121,57.043452 C80.4397254,57.1076116 80.8837508,57.4772933 81.0436406,58.0058464 C81.3868437,59.1372963 81.5599728,60.3115193 81.5599728,61.5 C81.5599728,62.6905175 81.3868437,63.8637221 81.044659,64.99008 C80.8837508,65.5186331 80.4417622,65.8883147 79.8877489,65.9514559 C79.8307182,65.9596032 79.772669,65.9626584 79.7166566,65.9626584 C79.2257846,65.9626584 78.7817592,65.7131488 78.5312311,65.2833811 C78.1859912,64.6927052 77.7531684,64.1356367 77.2449834,63.6284701 C76.7439273,63.1263956 76.1929692,62.6976463 75.6084037,62.3534249 C75.2998265,62.1711301 75.1154949,61.8513503 75.1154949,61.4959264 C75.1154949,61.139484 75.2998265,60.8197043 75.6084037,60.6374095 C76.1939876,60.2952248 76.7439273,59.867494 77.2449834,59.3654194 C77.7541868,58.8562161 78.1870097,58.300166 78.5302127,57.7135637 C78.8102746,57.2349125 79.3316989,56.9792924 79.8857121,57.043452 L79.8857121,57.043452 Z M77.2959037,69.2877565 C76.9282589,69.659475 76.3935954,69.8478802 75.76422,69.8478802 C75.4566611,69.8478802 75.1277158,69.8020519 74.7824759,69.7103953 C73.8068422,69.4486648 72.820006,68.8549336 72.0052806,68.0402082 C71.1192667,67.1521575 70.4878546,66.0573702 70.2750075,65.0308162 C70.1589092,64.4747661 70.0672526,63.4390465 70.7567139,62.7506035 C71.8301147,61.6792396 74.3476162,62.2984309 76.0483555,63.9971334 C77.8203832,65.7701795 78.3917094,68.1929692 77.2959037,69.2877565 L77.2959037,69.2877565 Z M83,61.5 C83,54.0554466 76.943535,48 69.5010184,48 C62.056465,48 56,54.0554466 56,61.5 C56,68.943535 62.056465,75 69.5010184,75 C76.943535,75 83,68.943535 83,61.5 L83,61.5 Z" id="Fill-410"></path>
            <path d="M87.113152,65.9517972 C86.5591597,65.8886584 86.1151511,65.5179723 85.9562856,64.9894391 C85.6141138,63.8600686 85.4409912,62.6858899 85.4409912,61.5005092 C85.4409912,60.3100366 85.6151322,59.1348395 85.9583223,58.005469 C86.1182062,57.4769358 86.5622148,57.1082865 87.1162071,57.0420926 C87.6722363,56.9820088 88.1916041,57.2335458 88.4696187,57.7131973 C88.8128088,58.2987591 89.2456154,58.856825 89.7558179,59.3670275 C90.2548184,59.8670464 90.8077924,60.2947611 91.3964093,60.6389696 C91.7059933,60.8192208 91.8913363,61.1400068 91.8913363,61.4964357 C91.8913363,61.8508279 91.7070117,62.1726323 91.3974277,62.3539019 C90.8077924,62.6991287 90.2548184,63.1278618 89.7547995,63.6278807 C89.2456154,64.1360465 88.8128088,64.693094 88.4686003,65.2817109 C88.2180817,65.7124807 87.7750915,65.9619809 87.2842379,65.9619809 C87.2272093,65.9619809 87.171199,65.9589258 87.113152,65.9517972 M89.7059179,53.7038811 C90.0725305,53.3382869 90.602082,53.1427602 91.2365255,53.1427602 C91.5389809,53.1427602 91.8119036,53.18655 91.9880813,53.2221929 C93.0095048,53.4340135 94.1062875,54.0664202 94.995323,54.9544374 C95.8823219,55.8424546 96.5137103,56.9392374 96.7255309,57.9626975 C96.8426432,58.5207634 96.9322596,59.5574624 96.2428243,60.2438426 C95.8028891,60.6847961 95.2193641,60.8070003 94.7101799,60.8070003 C94.4250368,60.8070003 94.1633161,60.7683023 93.9626975,60.7275676 C92.9372006,60.5137103 91.8414363,59.8833402 90.9544374,58.995323 C89.1824765,57.2223438 88.6101535,54.7996455 89.7059179,53.7038811 M94.0024139,49.9593407 C96.2611549,49.2719421 98.7317165,49.2719421 100.995549,49.957304 C101.523064,50.1192245 101.89375,50.5632331 101.957907,51.1162071 C102.023083,51.6722363 101.766454,52.1905858 101.288839,52.4716554 C100.703278,52.8148455 100.14623,53.2466337 99.6339909,53.7568363 C99.1319353,54.2599102 98.7032022,54.8128842 98.3589937,55.4025195 C98.1777241,55.7131219 97.8569381,55.8974465 97.5005092,55.8974465 C97.1430619,55.8974465 96.8222759,55.7121035 96.6420247,55.4035379 C96.2998529,54.814921 95.8701015,54.261947 95.3670275,53.7568363 C94.8588617,53.2496888 94.2997775,52.8168823 93.7070871,52.4726738 C93.2315091,52.1936409 92.9748802,51.6763097 93.0380191,51.121299 C93.1031947,50.5652699 93.4728624,50.1212613 94.0024139,49.9593407 M105.296119,53.7038811 L105.297137,53.7038811 C105.847056,54.2548184 105.999811,55.1723683 105.717723,56.2192509 C105.454984,57.1948478 104.862294,58.1806284 104.048618,58.995323 C103.233923,59.8100177 102.247124,60.4027081 101.270509,60.6654471 C100.9263,60.7581187 100.596349,60.8039452 100.288802,60.8039452 C99.6604684,60.8039452 99.1258251,60.612492 98.7571757,60.2438426 C98.0677404,59.5554256 98.1593935,58.5187267 98.2754875,57.9626975 C98.4873081,56.9392374 99.1186965,55.8424546 100.005695,54.9544374 C101.122845,53.8372874 102.564855,53.1447969 103.771621,53.1447969 C104.401991,53.1447969 104.928488,53.3382869 105.296119,53.7038811 M107.883793,57.0441293 C108.438804,57.1093049 108.882812,57.4779542 109.042696,58.0064874 C109.384868,59.1368762 109.559009,60.3120733 109.559009,61.5005092 C109.559009,62.6899634 109.385886,63.8641421 109.043714,64.9904575 C108.883831,65.5189907 108.439822,65.8886584 107.88583,65.9517972 C107.828801,65.9589258 107.771772,65.9619809 107.714744,65.9619809 C107.224909,65.9619809 106.7809,65.7124807 106.530381,65.2817109 C106.185154,64.6920756 105.752348,64.1350281 105.2452,63.6278807 C104.744163,63.1258251 104.192208,62.697092 103.607664,62.3528835 C103.300117,62.1726323 103.113756,61.8508279 103.113756,61.4964357 C103.113756,61.1400068 103.300117,60.8192208 103.608683,60.6389696 C104.192208,60.2967978 104.744163,59.8701015 105.246219,59.3660091 C105.755403,58.856825 106.187191,58.3007958 106.529363,57.7142157 C106.808396,57.2355825 107.326745,56.9799721 107.883793,57.0441293 M105.296119,69.2889903 C104.926451,69.658658 104.392826,69.8480745 103.763475,69.8480745 C103.455927,69.8480745 103.125976,69.8032663 102.780749,69.7105948 C101.806171,69.4498925 100.82039,68.8561838 100.005695,68.0394523 C99.1186965,67.1514351 98.4873081,66.0577075 98.2754875,65.0301739 C98.1583751,64.4731264 98.066722,63.4384641 98.755139,62.7500471 L98.7571757,62.7500471 C99.8295176,61.6766869 102.345906,62.29891 104.048618,63.9975484 C105.81956,65.7705277 106.389846,68.1942443 105.296119,69.2889903 M101.000641,73.0406593 C99.869234,73.3848678 98.6909818,73.5590088 97.5005092,73.5590088 C96.3079998,73.5590088 95.130766,73.3848678 94.0003772,73.0406593 C93.4708256,72.8797571 93.1021763,72.4357485 93.0370007,71.8817561 C92.9728435,71.325727 93.2294723,70.8094142 93.7060687,70.5273262 C94.2967224,70.1820993 94.8558066,69.7492928 95.3660091,69.2390903 C95.8690831,68.7319428 96.2988345,68.1789688 96.6399879,67.5903519 C96.8243126,67.2807679 97.1430619,67.0964433 97.5005092,67.0964433 L97.5025459,67.0964433 C97.8579565,67.0974616 98.1777241,67.2817863 98.3579753,67.5903519 C98.7021838,68.1810055 99.1309169,68.7339796 99.6339909,69.2380719 C100.147249,69.7492928 100.706333,70.1831177 101.29495,70.5273262 C101.771546,70.8094142 102.028175,71.3267454 101.962999,71.8817561 C101.897824,72.4357485 101.528156,72.8797571 101.000641,73.0406593 M89.7048995,69.2889903 C88.6091351,68.1942443 89.1814582,65.7705277 90.9544374,63.9975484 C91.8414363,63.1105495 92.938219,62.4791612 93.9626975,62.2673405 C94.9138536,62.0738506 95.7377136,62.2449364 96.2438426,62.7500471 C96.9292045,63.4364274 96.8416249,64.4710897 96.7255309,65.0291555 C96.5137103,66.0577075 95.8823219,67.1534719 94.9943047,68.0394523 C93.8343831,69.2003923 92.3944103,69.8450194 91.2314336,69.8450194 C90.6183759,69.8450194 90.0816958,69.666805 89.7048995,69.2889903 M97.5005092,75 C104.943763,75 111,68.9437634 111,61.5005092 C111,54.0562366 104.943763,48 97.5005092,48 C90.0562366,48 84,54.0562366 84,61.5005092 C84,68.9437634 90.0562366,75 97.5005092,75" id="Fill-412"></path>
            <path d="M3.11315204,17.9517972 C2.55915966,17.8886584 2.11616943,17.5189907 1.9562856,16.9894391 C1.61411383,15.8600686 1.44099121,14.6858899 1.44099121,13.5005092 C1.44099121,12.3120733 1.61411383,11.1368762 1.95730396,10.005469 L1.95730396,10.0044506 C2.11820616,9.47693584 2.56221476,9.1082865 3.11620714,9.04209256 C3.67121789,8.97793535 4.19058575,9.23354581 4.46961868,9.7131973 C4.81382718,10.3007958 5.24663373,10.856825 5.7558179,11.3670275 C6.25481839,11.866028 6.80677404,12.2947611 7.39539094,12.6399879 C7.70497492,12.8192208 7.89133633,13.1400068 7.89133633,13.4964357 C7.89133633,13.8528646 7.70701165,14.1726323 7.39539094,14.3549202 C6.80677404,14.7001471 6.25481839,15.1288802 5.75479953,15.6278807 C5.24663373,16.1350281 4.81382718,16.6920756 4.46860031,17.2827292 C4.2180817,17.7124807 3.77509146,17.9619809 3.28423792,17.9619809 C3.22720929,17.9619809 3.17119903,17.9589258 3.11315204,17.9517972 M5.70591785,5.70388111 C6.21204692,5.19673368 7.05627428,5.02972127 7.98706295,5.22219289 C9.0084864,5.4340135 10.1052691,6.06540188 10.995323,6.95443745 C11.8833402,7.84245464 12.5137103,8.94025572 12.7255309,9.96371591 C12.8426432,10.5187267 12.9342964,11.5554256 12.2428243,12.244861 C11.8039075,12.6847961 11.2203825,12.8070003 10.7111983,12.8070003 C10.4260551,12.8070003 10.1643345,12.7683023 9.96473428,12.7275676 C8.93618225,12.5137103 7.84041791,11.8833402 6.95443745,10.9943047 C5.18247652,9.22234376 4.61015351,6.79964546 5.70591785,5.70388111 M10.0024139,1.9593407 C12.2580998,1.27194207 14.7286614,1.26990533 16.9955494,1.95730396 L16.9965677,1.95730396 C17.5240825,2.11922453 17.8937502,2.56323313 17.9589258,3.11620714 C18.0241014,3.67223626 17.7674726,4.19058575 17.2898578,4.47165541 C16.7032776,4.81484555 16.1462302,5.2476521 15.6350092,5.75683627 C15.1309169,6.26194697 14.7021838,6.81492098 14.3600121,7.40251952 C14.1777241,7.71312186 13.8569381,7.89744654 13.5015276,7.89744654 L13.5005092,7.89744654 C13.1430619,7.89642817 12.8232942,7.7121035 12.6420247,7.40353789 C12.2998529,6.81492098 11.8711198,6.26194697 11.3670275,5.75683627 C10.8598801,5.24968883 10.3018142,4.81790065 9.70708709,4.47165541 C9.23150907,4.19364086 8.97488025,3.67630973 9.03903745,3.12129899 C9.10319466,2.56526987 9.471844,2.12126127 10.0024139,1.9593407 M21.2961189,5.70388111 L21.2971373,5.70489948 C22.3908649,6.80066383 21.8195602,9.22234376 20.0486177,10.995323 C19.2329046,11.8100177 18.2471241,12.4027081 17.2725455,12.6654471 C16.9263003,12.7581187 16.596349,12.8039452 16.2898201,12.8039452 C15.6604684,12.8039452 15.1258251,12.612492 14.7581941,12.2438426 C14.0687587,11.5554256 14.1593935,10.5207634 14.2744691,9.96269754 C14.4873081,8.93923736 15.1186965,7.84245464 16.0056953,6.95443745 C17.1228454,5.83728737 18.5658733,5.14479689 19.7716215,5.14479689 C20.4019915,5.14479689 20.9284879,5.33828688 21.2961189,5.70388111 M23.8848112,9.0441293 C24.4388036,9.11032324 24.8828122,9.47897258 25.042696,10.0064874 C25.3848678,11.1368762 25.5590088,12.3120733 25.5590088,13.5005092 C25.5590088,14.6858899 25.3858862,15.8600686 25.0437144,16.9894391 C24.8838306,17.5179723 24.4408403,17.88764 23.886848,17.9517972 C23.8308377,17.9589258 23.7727907,17.9619809 23.7147437,17.9619809 C23.2259269,17.9619809 22.7819183,17.7124807 22.5303813,17.2827292 C22.1851545,16.6910572 21.7523479,16.1340097 21.2452005,15.6278807 C20.7451816,15.1278618 20.193226,14.6981104 19.6086825,14.3528835 C19.3001169,14.1726323 19.1147739,13.8508279 19.1147739,13.4964357 C19.1147739,13.1400068 19.3001169,12.8192208 19.6097009,12.6389696 C20.1922076,12.2967978 20.7441632,11.8701015 21.2452005,11.3670275 C21.7543846,10.8588617 22.1861728,10.3028326 22.529363,9.71421567 C22.8094142,9.23354581 23.3389658,8.98099046 23.8848112,9.0441293 M21.2961189,21.2889903 C20.9284879,21.6566213 20.4019915,21.8490929 19.7706031,21.8490929 C18.564855,21.8490929 17.1228454,21.1566024 16.0056953,20.0394523 C15.1186965,19.1514351 14.4873081,18.0566892 14.2744691,17.0301739 C14.1593935,16.4731264 14.0677404,15.4374458 14.7571757,14.7500471 C15.830536,13.6777053 18.3448874,14.29891 20.0486177,15.9975484 C21.8195602,17.7705277 22.3898465,20.1952627 21.2961189,21.2889903 M17.0006412,25.0406593 C15.8702523,25.3848678 14.6920002,25.5590088 13.5005092,25.5590088 C12.3079998,25.5590088 11.1297477,25.3848678 10.0013955,25.0406593 L10.0003772,25.0406593 C9.471844,24.8797571 9.10217629,24.4357485 9.03700072,23.8817561 C8.97284351,23.325727 9.22845397,22.8094142 9.70606872,22.5273262 C10.2977407,22.1820993 10.856825,21.7482744 11.3660091,21.2390903 C11.8701015,20.7319428 12.2988345,20.1789688 12.6410063,19.5903519 C13.0066005,18.9701656 13.9954362,18.9711839 14.3579753,19.5893335 C14.7011655,20.1789688 15.1298985,20.7319428 15.6339909,21.2390903 C16.1452118,21.7492928 16.704296,22.1820993 17.2939313,22.5273262 C17.771546,22.8094142 18.0291932,23.325727 17.9629993,23.8817561 C17.8978237,24.4357485 17.5291744,24.8797571 17.0006412,25.0406593 M5.70489948,21.2889903 C4.60913514,20.1942443 5.18145815,17.7705277 6.95341908,15.9985667 C7.84143628,15.1095312 8.93821899,14.4791612 9.96269754,14.2673405 C10.9209822,14.0748689 11.7377136,14.2449364 12.2438426,14.7500471 C12.9322596,15.4374458 12.8416249,16.4731264 12.7255309,17.0301739 C12.5126919,18.0577075 11.8813035,19.1534719 10.995323,20.0394523 C9.83438313,21.2003923 8.39441029,21.8450194 7.23143364,21.8450194 C6.61837589,21.8450194 6.08169577,21.666805 5.70489948,21.2889903 M13.5005092,27 C20.9437634,27 27,20.9437634 27,13.5005092 C27,6.05623656 20.9437634,0 13.5005092,0 C6.05623656,0 0,6.05623656 0,13.5005092 C0,20.9437634 6.05623656,27 13.5005092,27" id="Fill-248"></path>
            <path d="M31.113152,17.9517972 C30.5591597,17.88764 30.1161694,17.5179723 29.9562856,16.9894391 C29.6151322,15.8631238 29.4420096,14.6879267 29.4420096,13.5005092 C29.4420096,12.3079998 29.6161506,11.1328028 29.9593407,10.0044506 C30.1192245,9.47693584 30.5622148,9.10930487 31.1162071,9.04209256 C31.674273,8.97589862 32.1926225,9.23354581 32.470637,9.7131973 C32.8138272,10.2987591 33.2456154,10.8558066 33.7558179,11.3670275 C34.2558368,11.866028 34.8077924,12.2947611 35.3974277,12.6389696 C35.7070117,12.8192208 35.8913363,13.1400068 35.8923547,13.4964357 C35.8923547,13.8508279 35.70803,14.1726323 35.398446,14.3539019 C34.8077924,14.7001471 34.2558368,15.1288802 33.7547995,15.6278807 C33.2456154,16.1370648 32.8138272,16.693094 32.4696187,17.2817109 C32.2180817,17.7124807 31.7750915,17.9619809 31.2852563,17.9619809 C31.2272093,17.9619809 31.171199,17.9589258 31.113152,17.9517972 M33.7059179,5.70388111 C34.0725305,5.33828688 34.602082,5.14276016 35.2365255,5.14276016 C35.5399992,5.14276016 35.812922,5.18654999 35.9880813,5.22219289 C37.0095048,5.4340135 38.1062875,6.06540188 38.995323,6.95443745 C39.8823219,7.84041791 40.5137103,8.93821899 40.7265492,9.96269754 C40.8426432,10.5207634 40.9322596,11.5574624 40.2428243,12.244861 C39.8039075,12.6847961 39.2203825,12.8070003 38.7111983,12.8070003 C38.4260551,12.8070003 38.1643345,12.7683023 37.9637159,12.7275676 C36.9392374,12.5147286 35.8424546,11.8833402 34.9544374,10.995323 C33.1824765,9.22234376 32.6101535,6.79964546 33.7059179,5.70388111 M38.0034323,1.9593407 C40.2601365,1.27194207 42.7317165,1.2709237 44.9965677,1.95730396 L44.9975861,1.95730396 C45.5240825,2.11922453 45.8947686,2.56323313 45.9589258,3.11620714 C46.0241014,3.67223626 45.7674726,4.19058575 45.2898578,4.47165541 C44.7032776,4.81484555 44.1462302,5.2476521 43.6350092,5.75683627 C43.1309169,6.26194697 42.7021838,6.81492098 42.3600121,7.40251952 C42.1777241,7.71312186 41.8569381,7.89744654 41.5015276,7.89744654 L41.5005092,7.89744654 C41.1430619,7.89642817 40.8222759,7.7121035 40.6420247,7.40353789 C40.2988345,6.81186588 39.8701015,6.25991023 39.3670275,5.75683627 C38.8608984,5.24968883 38.3028326,4.81790065 37.7070871,4.47267378 C37.2315091,4.19364086 36.9748802,3.67630973 37.0380191,3.12129899 C37.1031947,2.56526987 37.4728624,2.12126127 38.0034323,1.9593407 M49.2961189,5.70388111 L49.2971373,5.70388111 C49.8470562,6.25481839 50.0008298,7.17236827 49.7177234,8.21925093 C49.4560027,9.19484781 48.862294,10.1806284 48.0486177,10.995323 C46.9314676,12.1124731 45.4884396,12.805982 44.2826915,12.805982 C43.6513031,12.805982 43.1248067,12.6104552 42.7581941,12.2438426 C42.066722,11.5533889 42.1593935,10.5187267 42.2765059,9.96269754 C42.4873081,8.94025572 43.1186965,7.84245464 44.0056953,6.95443745 C45.1228454,5.83728737 46.5658733,5.14479689 47.7716215,5.14479689 C48.4019915,5.14479689 48.9284879,5.33828688 49.2961189,5.70388111 M51.8837929,9.0441293 C52.4388036,9.10930487 52.8828122,9.47693584 53.042696,10.0064874 C53.3858862,11.138913 53.5590088,12.3130917 53.5590088,13.5005092 C53.5590088,14.6879267 53.3858862,15.8631238 53.0447328,16.9894391 C52.8838306,17.5189907 52.439822,17.8886584 51.8858296,17.9517972 C51.828801,17.9589258 51.7717723,17.9619809 51.7157621,17.9619809 C51.2259269,17.9619809 50.7819183,17.7114623 50.5313997,17.2817109 C50.1851545,16.6910572 49.7523479,16.1329914 49.2452005,15.6278807 C48.7431449,15.1258251 48.1922076,14.6960736 47.6086825,14.3528835 C47.3011353,14.1716139 47.1147739,13.8498095 47.1147739,13.4964357 C47.1147739,13.1410252 47.3011353,12.8192208 47.6086825,12.6389696 C48.1922076,12.2967978 48.7441632,11.8701015 49.2452005,11.3670275 C49.7533663,10.8588617 50.1861728,10.3028326 50.5303813,9.7131973 C50.8094142,9.23558254 51.3287821,8.98200883 51.8837929,9.0441293 M49.2961189,21.2889903 C48.9264512,21.658658 48.3938445,21.8480745 47.7634745,21.8480745 C47.4559273,21.8480745 47.1269943,21.8032663 46.7807491,21.7105948 C45.8071889,21.4498925 44.8214084,20.8561838 44.0056953,20.0394523 C43.1186965,19.1514351 42.4873081,18.0556708 42.2754875,17.0291555 C42.1593935,16.4751631 42.066722,15.4394825 42.7571757,14.7510655 L42.7571757,14.7500471 C43.830536,13.6766869 46.3469242,14.29891 48.0486177,15.9975484 C49.8195602,17.7705277 50.3908649,20.1942443 49.2961189,21.2889903 M45.0016596,25.0406593 C43.8702523,25.3848678 42.6920002,25.5590088 41.5005092,25.5590088 C40.3090182,25.5590088 39.1317844,25.3848678 38.0013955,25.0406593 L38.0003772,25.0406593 C37.471844,24.8797571 37.1031947,24.4357485 37.0370007,23.8817561 C36.9728435,23.325727 37.2294723,22.8094142 37.7060687,22.5273262 C38.295704,22.1831177 38.8537698,21.7503112 39.3660091,21.2390903 C39.8680647,20.7349979 40.2967978,20.1820239 40.6420247,19.5903519 C41.0045638,18.9711839 41.9954362,18.9701656 42.3589937,19.5903519 C42.7011655,20.1789688 43.1298985,20.7319428 43.6339909,21.2390903 C44.1462302,21.7492928 44.7053144,22.1831177 45.2949496,22.5273262 C45.771546,22.8094142 46.0281749,23.3267454 45.9629993,23.8817561 C45.8988421,24.4357485 45.5301927,24.8797571 45.0016596,25.0406593 M35.2355071,21.8470562 C34.6081922,21.8470562 34.0735488,21.658658 33.7048995,21.2889903 C32.6091351,20.1942443 33.1824765,17.7705277 34.9544374,15.9975484 C35.8424546,15.1095312 36.9392374,14.4791612 37.9637159,14.2673405 C38.9087617,14.0728322 39.7377136,14.2428997 40.2438426,14.7510655 C40.9302229,15.435409 40.8416249,16.4710897 40.7265492,17.0291555 C40.5137103,18.0577075 39.8813035,19.1534719 38.9943047,20.0394523 C38.17961,20.854147 37.1938294,21.4488741 36.2192509,21.7105948 C35.8740241,21.802248 35.5440727,21.8470562 35.2355071,21.8470562 M41.5005092,27 C48.9437634,27 55,20.9437634 55,13.5005092 C55,6.05623656 48.9437634,0 41.5005092,0 C34.0562366,0 28,6.05623656 28,13.5005092 C28,20.9437634 34.0562366,27 41.5005092,27" id="Fill-250"></path>
            <path d="M65.999736,25.0405854 C65.4711829,24.8806955 65.1025196,24.4356518 65.0373416,23.8806201 C64.973182,23.3255884 65.2298205,22.8082378 65.7084716,22.5271575 C66.2991476,22.1819176 66.8562161,21.7480763 67.3654194,21.238873 C67.8685124,20.7337432 68.29828,20.1797299 68.6414831,19.5900724 C68.8237779,19.2804768 69.144576,19.0951267 69.5010184,19.0951267 L69.5020368,19.0951267 C69.8574608,19.0951267 70.1792773,19.2804768 70.3595353,19.5900724 C70.7027384,20.1797299 71.1314876,20.7337432 71.6345806,21.2378546 C72.1437839,21.7480763 72.7028893,22.1819176 73.2935652,22.5271575 C73.7711979,22.8082378 74.0278365,23.3255884 73.9636768,23.8806201 C73.8984988,24.4356518 73.530854,24.8806955 73.000264,25.0405854 C71.8688141,25.3858253 70.6925543,25.5589544 69.5010184,25.5589544 C68.3084641,25.5589544 67.1311859,25.3858253 66.0007544,25.0405854 L65.999736,25.0405854 Z M61.7040963,21.2877565 C60.609309,20.1929692 61.1806352,17.7701795 62.9526629,15.9981518 C63.841732,15.1090827 64.9385561,14.4786889 65.9630733,14.2678787 C66.9193573,14.073363 67.7391747,14.2444553 68.2443045,14.7506035 C68.9307106,15.4359912 68.8410908,16.4717109 68.7270293,17.0308162 C68.5131639,18.0573702 67.8817517,19.1541943 66.9947194,20.0402082 C65.8337357,21.2001735 64.3937085,21.844825 63.230688,21.844825 C62.6186255,21.844825 62.0819252,21.6666038 61.7040963,21.2877565 L61.7040963,21.2877565 Z M59.2843618,17.9626584 C59.2283494,17.9626584 59.1713186,17.9596032 59.1132695,17.9514559 C58.5592562,17.8883147 58.1162492,17.5186331 57.955341,16.9890616 C57.6131563,15.8596485 57.4400272,14.6854255 57.4400272,13.5 C57.4400272,12.3105009 57.6141747,11.1342411 57.9573778,10.004828 C58.1172677,9.47627489 58.561293,9.10659324 59.1163247,9.04243361 C59.67543,8.98132921 60.1907438,9.23389409 60.4708057,9.71254526 C60.8150272,10.300166 61.2468316,10.8551976 61.756035,11.3654194 C62.2550543,11.8654572 62.8070308,12.293188 63.3977067,12.6374095 C63.7062839,12.8197043 63.8906156,13.1384656 63.891634,13.4959264 C63.891634,13.8523687 63.7073024,14.1721485 63.3977067,14.3544433 C62.8070308,14.6996832 62.2550543,15.127414 61.7550166,15.6284701 C61.24785,16.1356367 60.8150272,16.6927052 60.4697873,17.2833811 C60.2182408,17.7131488 59.7742154,17.9626584 59.2843618,17.9626584 L59.2843618,17.9626584 Z M61.7051147,5.70409626 C62.0778515,5.33034098 62.5931654,5.14091732 63.23578,5.14091732 C63.5392652,5.14091732 63.8121982,5.18572722 63.9873642,5.22238986 C65.0098446,5.43421847 66.1066687,6.06359384 66.9957378,6.95368135 C67.8827701,7.84071364 68.5131639,8.93753772 68.7260109,9.96205492 C68.8431276,10.518105 68.9337658,11.5548431 68.2443045,12.2443045 C67.8033343,12.6842562 67.2218241,12.8054466 66.7105839,12.8054466 C66.42543,12.8054466 66.1636995,12.7677655 65.9640917,12.7260109 C64.9385561,12.5131639 63.841732,11.8827701 62.9536814,10.9947194 C61.1816536,9.2216732 60.609309,6.79888352 61.7051147,5.70409626 L61.7051147,5.70409626 Z M66.0017728,1.95737779 C68.2616174,1.27199004 70.7312538,1.27199004 72.9961904,1.95635938 C73.5257619,2.11726765 73.8944252,2.56231141 73.9596032,3.11632468 C74.0247812,3.67237477 73.7671243,4.18972541 73.2894916,4.46978727 C72.7039077,4.81299034 72.1468392,5.24581322 71.635599,5.756035 C71.132506,6.25912794 70.7027384,6.81314122 70.3605537,7.40279873 C70.1792773,7.71239439 69.8574608,7.89774442 69.5010184,7.89774442 C69.1435576,7.89672601 68.8237779,7.71137598 68.6414831,7.40381714 C68.29828,6.81314122 67.8695308,6.25912794 67.3664378,5.756035 C66.8602897,5.24785003 66.3022028,4.81706397 65.7084716,4.47080567 C65.2308389,4.19278063 64.9742004,3.67542999 65.0373416,3.12141672 C65.1025196,2.56536663 65.4722013,2.12032287 66.0017728,1.95737779 L66.0017728,1.95737779 Z M77.2969221,5.70409626 L77.2969221,5.70409626 C77.8468618,6.2530175 78.0016596,7.1716204 77.7175241,8.21854255 C77.4557936,9.19315782 76.8620625,10.1789756 76.0483555,10.9947194 C75.2336301,11.8094448 74.2478123,12.4021575 73.273197,12.6659249 C72.9279572,12.7575815 72.596975,12.8023914 72.2904345,12.8023914 C71.6610591,12.8023914 71.127414,12.6119493 70.7577323,12.2443045 C70.0672526,11.5538247 70.1589092,10.5170866 70.2750075,9.96205492 C70.4878546,8.93753772 71.1192667,7.84071364 72.0052806,6.95368135 C73.7060199,5.25497888 76.2235214,4.63375075 77.2969221,5.70409626 L77.2969221,5.70409626 Z M79.8857121,9.04345202 C80.4397254,9.10761165 80.8837508,9.4772933 81.0436406,10.0058464 C81.3868437,11.1372963 81.5599728,12.3115193 81.5599728,13.5 C81.5599728,14.6905175 81.3868437,15.8637221 81.044659,16.99008 C80.8837508,17.5186331 80.4417622,17.8883147 79.8877489,17.9514559 C79.8307182,17.9596032 79.772669,17.9626584 79.7166566,17.9626584 C79.2257846,17.9626584 78.7817592,17.7131488 78.5312311,17.2833811 C78.1859912,16.6927052 77.7531684,16.1356367 77.2449834,15.6284701 C76.7439273,15.1263956 76.1929692,14.6976463 75.6084037,14.3534249 C75.2998265,14.1711301 75.1154949,13.8513503 75.1154949,13.4959264 C75.1154949,13.139484 75.2998265,12.8197043 75.6084037,12.6374095 C76.1939876,12.2952248 76.7439273,11.867494 77.2449834,11.3654194 C77.7541868,10.8562161 78.1870097,10.300166 78.5302127,9.71356367 C78.8102746,9.23491249 79.3316989,8.9792924 79.8857121,9.04345202 L79.8857121,9.04345202 Z M77.2959037,21.2877565 C76.9282589,21.659475 76.3935954,21.8478802 75.76422,21.8478802 C75.4566611,21.8478802 75.1277158,21.8020519 74.7824759,21.7103953 C73.8068422,21.4486648 72.820006,20.8549336 72.0052806,20.0402082 C71.1192667,19.1521575 70.4878546,18.0573702 70.2750075,17.0308162 C70.1589092,16.4747661 70.0672526,15.4390465 70.7567139,14.7506035 C71.8301147,13.6792396 74.3476162,14.2984309 76.0483555,15.9971334 C77.8203832,17.7701795 78.3917094,20.1929692 77.2959037,21.2877565 L77.2959037,21.2877565 Z M83,13.5 C83,6.05544659 76.943535,0 69.5010184,0 C62.056465,0 56,6.05544659 56,13.5 C56,20.943535 62.056465,27 69.5010184,27 C76.943535,27 83,20.943535 83,13.5 L83,13.5 Z" id="Fill-410"></path>
            <path d="M87.113152,17.9517972 C86.5591597,17.8886584 86.1151511,17.5179723 85.9562856,16.9894391 C85.6141138,15.8600686 85.4409912,14.6858899 85.4409912,13.5005092 C85.4409912,12.3100366 85.6151322,11.1348395 85.9583223,10.005469 C86.1182062,9.47693584 86.5622148,9.1082865 87.1162071,9.04209256 C87.6722363,8.98200883 88.1916041,9.23354581 88.4696187,9.7131973 C88.8128088,10.2987591 89.2456154,10.856825 89.7558179,11.3670275 C90.2548184,11.8670464 90.8077924,12.2947611 91.3964093,12.6389696 C91.7059933,12.8192208 91.8913363,13.1400068 91.8913363,13.4964357 C91.8913363,13.8508279 91.7070117,14.1726323 91.3974277,14.3539019 C90.8077924,14.6991287 90.2548184,15.1278618 89.7547995,15.6278807 C89.2456154,16.1360465 88.8128088,16.693094 88.4686003,17.2817109 C88.2180817,17.7124807 87.7750915,17.9619809 87.2842379,17.9619809 C87.2272093,17.9619809 87.171199,17.9589258 87.113152,17.9517972 M89.7059179,5.70388111 C90.0725305,5.33828688 90.602082,5.14276016 91.2365255,5.14276016 C91.5389809,5.14276016 91.8119036,5.18654999 91.9880813,5.22219289 C93.0095048,5.4340135 94.1062875,6.06642025 94.995323,6.95443745 C95.8823219,7.84245464 96.5137103,8.93923736 96.7255309,9.96269754 C96.8426432,10.5207634 96.9322596,11.5574624 96.2428243,12.2438426 C95.8028891,12.6847961 95.2193641,12.8070003 94.7101799,12.8070003 C94.4250368,12.8070003 94.1633161,12.7683023 93.9626975,12.7275676 C92.9372006,12.5137103 91.8414363,11.8833402 90.9544374,10.995323 C89.1824765,9.22234376 88.6101535,6.79964546 89.7059179,5.70388111 M94.0024139,1.9593407 C96.2611549,1.27194207 98.7317165,1.27194207 100.995549,1.95730396 C101.523064,2.11922453 101.89375,2.56323313 101.957907,3.11620714 C102.023083,3.67223626 101.766454,4.19058575 101.288839,4.47165541 C100.703278,4.81484555 100.14623,5.24663373 99.6339909,5.75683627 C99.1319353,6.25991023 98.7032022,6.81288425 98.3589937,7.40251952 C98.1777241,7.71312186 97.8569381,7.89744654 97.5005092,7.89744654 C97.1430619,7.89744654 96.8222759,7.7121035 96.6420247,7.40353789 C96.2998529,6.81492098 95.8701015,6.26194697 95.3670275,5.75683627 C94.8588617,5.24968883 94.2997775,4.81688228 93.7070871,4.47267378 C93.2315091,4.19364086 92.9748802,3.67630973 93.0380191,3.12129899 C93.1031947,2.56526987 93.4728624,2.12126127 94.0024139,1.9593407 M105.296119,5.70388111 L105.297137,5.70388111 C105.847056,6.25481839 105.999811,7.17236827 105.717723,8.21925093 C105.454984,9.19484781 104.862294,10.1806284 104.048618,10.995323 C103.233923,11.8100177 102.247124,12.4027081 101.270509,12.6654471 C100.9263,12.7581187 100.596349,12.8039452 100.288802,12.8039452 C99.6604684,12.8039452 99.1258251,12.612492 98.7571757,12.2438426 C98.0677404,11.5554256 98.1593935,10.5187267 98.2754875,9.96269754 C98.4873081,8.93923736 99.1186965,7.84245464 100.005695,6.95443745 C101.122845,5.83728737 102.564855,5.14479689 103.771621,5.14479689 C104.401991,5.14479689 104.928488,5.33828688 105.296119,5.70388111 M107.883793,9.0441293 C108.438804,9.10930487 108.882812,9.47795421 109.042696,10.0064874 C109.384868,11.1368762 109.559009,12.3120733 109.559009,13.5005092 C109.559009,14.6899634 109.385886,15.8641421 109.043714,16.9904575 C108.883831,17.5189907 108.439822,17.8886584 107.88583,17.9517972 C107.828801,17.9589258 107.771772,17.9619809 107.714744,17.9619809 C107.224909,17.9619809 106.7809,17.7124807 106.530381,17.2817109 C106.185154,16.6920756 105.752348,16.1350281 105.2452,15.6278807 C104.744163,15.1258251 104.192208,14.697092 103.607664,14.3528835 C103.300117,14.1726323 103.113756,13.8508279 103.113756,13.4964357 C103.113756,13.1400068 103.300117,12.8192208 103.608683,12.6389696 C104.192208,12.2967978 104.744163,11.8701015 105.246219,11.3660091 C105.755403,10.856825 106.187191,10.3007958 106.529363,9.71421567 C106.808396,9.23558254 107.326745,8.97997209 107.883793,9.0441293 M105.296119,21.2889903 C104.926451,21.658658 104.392826,21.8480745 103.763475,21.8480745 C103.455927,21.8480745 103.125976,21.8032663 102.780749,21.7105948 C101.806171,21.4498925 100.82039,20.8561838 100.005695,20.0394523 C99.1186965,19.1514351 98.4873081,18.0577075 98.2754875,17.0301739 C98.1583751,16.4731264 98.066722,15.4384641 98.755139,14.7500471 L98.7571757,14.7500471 C99.8295176,13.6766869 102.345906,14.29891 104.048618,15.9975484 C105.81956,17.7705277 106.389846,20.1942443 105.296119,21.2889903 M101.000641,25.0406593 C99.869234,25.3848678 98.6909818,25.5590088 97.5005092,25.5590088 C96.3079998,25.5590088 95.130766,25.3848678 94.0003772,25.0406593 C93.4708256,24.8797571 93.1021763,24.4357485 93.0370007,23.8817561 C92.9728435,23.325727 93.2294723,22.8094142 93.7060687,22.5273262 C94.2967224,22.1820993 94.8558066,21.7492928 95.3660091,21.2390903 C95.8690831,20.7319428 96.2988345,20.1789688 96.6399879,19.5903519 C96.8243126,19.2807679 97.1430619,19.0964433 97.5005092,19.0964433 L97.5025459,19.0964433 C97.8579565,19.0974616 98.1777241,19.2817863 98.3579753,19.5903519 C98.7021838,20.1810055 99.1309169,20.7339796 99.6339909,21.2380719 C100.147249,21.7492928 100.706333,22.1831177 101.29495,22.5273262 C101.771546,22.8094142 102.028175,23.3267454 101.962999,23.8817561 C101.897824,24.4357485 101.528156,24.8797571 101.000641,25.0406593 M89.7048995,21.2889903 C88.6091351,20.1942443 89.1814582,17.7705277 90.9544374,15.9975484 C91.8414363,15.1105495 92.938219,14.4791612 93.9626975,14.2673405 C94.9138536,14.0738506 95.7377136,14.2449364 96.2438426,14.7500471 C96.9292045,15.4364274 96.8416249,16.4710897 96.7255309,17.0291555 C96.5137103,18.0577075 95.8823219,19.1534719 94.9943047,20.0394523 C93.8343831,21.2003923 92.3944103,21.8450194 91.2314336,21.8450194 C90.6183759,21.8450194 90.0816958,21.666805 89.7048995,21.2889903 M97.5005092,27 C104.943763,27 111,20.9437634 111,13.5005092 C111,6.05623656 104.943763,0 97.5005092,0 C90.0562366,0 84,6.05623656 84,13.5005092 C84,20.9437634 90.0562366,27 97.5005092,27" id="Fill-412"></path>
        </g>
    </g>
</svg>